<?xml version="1.0" encoding="utf-8"?>
<!-- Generator: Adobe Illustrator 16.0.0, SVG Export Plug-In . SVG Version: 6.00 Build 0)  -->
<!DOCTYPE svg PUBLIC "-//W3C//DTD SVG 1.1//EN" "http://www.w3.org/Graphics/SVG/1.1/DTD/svg11.dtd">
<svg version="1.1" id="Calque_1" xmlns="http://www.w3.org/2000/svg" xmlns:xlink="http://www.w3.org/1999/xlink" x="0px" y="0px"
	 width="512px" height="512px" viewBox="0 0 512 512" enable-background="new 0 0 512 512" xml:space="preserve">
<g>
	<g>
		<path fill-rule="evenodd" clip-rule="evenodd" fill="#FFFFFF" d="M513,474c0,13,0,26,0,39c-170.667,0-341.333,0-512,0
			C1,342.333,1,171.667,1,1c170.667,0,341.333,0,512,0c0,150.333,0,300.667,0,451c-0.598-0.984-1.301-1.921-1.778-2.96
			c-28.965-63.034-57.908-126.078-86.866-189.116c-2.753-5.992-5.582-11.95-8.518-18.226c-10.723,6.8-20.92,13.267-31.458,19.949
			c-38.87-70.553-77.45-140.578-116.515-211.484c-42.728,85.814-84.96,170.634-127.629,256.33
			c-14.339-14.496-28.19-28.499-42.321-42.785c-0.869,1.747-1.422,2.755-1.885,3.803c-17.864,40.483-36.146,80.79-53.418,121.523
			c-10.442,24.627-19.368,49.898-28.831,74.935c-1.117,2.955-1.324,6.254-2.081,10.031C179.496,474,346.248,474,513,474z"/>
		<path fill-rule="evenodd" clip-rule="evenodd" d="M513,474c-166.752,0-333.504,0-501.3,0c0.757-3.777,0.963-7.076,2.081-10.031
			c9.463-25.036,18.389-50.308,28.831-74.935c17.273-40.733,35.554-81.04,53.418-121.523c0.462-1.048,1.016-2.056,1.885-3.803
			c14.131,14.286,27.982,28.289,42.321,42.785c42.669-85.696,84.901-170.516,127.629-256.33
			c39.064,70.906,77.645,140.932,116.515,211.484c10.538-6.683,20.735-13.149,31.458-19.949c2.936,6.275,5.765,12.233,8.518,18.226
			c28.958,63.038,57.901,126.082,86.866,189.116c0.478,1.039,1.181,1.976,1.778,2.96C513,459.333,513,466.667,513,474z
			 M269.487,105.255c-26.362,52.257-52.313,103.699-78.264,155.142c2.607-0.174,4.203-1.032,5.792-1.9
			c22.345-12.211,44.737-24.335,66.98-36.729c3.324-1.853,5.178-1.375,7.621,1.186c5.402,5.661,11.08,11.061,16.672,16.54
			c7.592,7.438,15.208,14.851,22.969,22.425c10.757-7.521,21.199-14.822,31.84-22.262
			C318.522,194.786,294.238,150.445,269.487,105.255z"/>
		<path fill-rule="evenodd" clip-rule="evenodd" fill="#FFFFFF" d="M269.487,105.255c24.751,45.19,49.035,89.531,73.61,134.401
			c-10.641,7.439-21.083,14.74-31.84,22.262c-7.761-7.574-15.377-14.987-22.969-22.425c-5.592-5.479-11.27-10.879-16.672-16.54
			c-2.443-2.561-4.297-3.038-7.621-1.186c-22.243,12.394-44.635,24.518-66.98,36.729c-1.59,0.868-3.185,1.727-5.792,1.9
			C217.174,208.954,243.125,157.512,269.487,105.255z"/>
	</g>
</g>
</svg>
