<?xml version="1.0" encoding="utf-8"?>
<!-- Generator: Adobe Illustrator 16.0.0, SVG Export Plug-In . SVG Version: 6.00 Build 0)  -->
<!DOCTYPE svg PUBLIC "-//W3C//DTD SVG 1.1//EN" "http://www.w3.org/Graphics/SVG/1.1/DTD/svg11.dtd">
<svg version="1.1" id="Calque_1" xmlns="http://www.w3.org/2000/svg" xmlns:xlink="http://www.w3.org/1999/xlink" x="0px" y="0px"
	 width="91.75px" height="92px" viewBox="0 0 91.75 92" enable-background="new 0 0 91.75 92" xml:space="preserve">
<g>
	<g>
		<path fill-rule="evenodd" clip-rule="evenodd" fill="#FFFFFF" fill-opacity = "0.0" d="M110.953,111.453c-43.006,0-85.979,0-128.922,0
			c0-43.006,0-85.979,0-128.922c43.005,0,85.979,0,128.922,0C110.953,25.537,110.953,68.51,110.953,111.453z M46.11,91.357
			c26.027,0.896,45.606-20.682,45.594-44.56C91.69,20.209,72.418,0.534,45.852,0.748C18.964,0.964,0.621,20.148,0.445,46.58
			C0.283,70.933,19.479,91.923,46.11,91.357z"/>
		<path fill-rule="evenodd" clip-rule="evenodd" fill="#FFFFFF" d="M46.11,91.357C19.479,91.923,0.283,70.933,0.445,46.58
			C0.621,20.148,18.964,0.964,45.852,0.748c26.566-0.214,45.839,19.461,45.853,46.05C91.717,70.676,72.138,92.253,46.11,91.357z
			 M46.304,85.487c24.148,0.43,39.437-19.579,39.64-38.518c0.21-19.608-17.481-39.904-33.84-40.664
			C23.708,4.987,5.272,23.327,6.115,48.792C6.678,65.808,21.658,86.438,46.304,85.487z"/>
		<path fill-rule="evenodd" clip-rule="evenodd" fill="#FFFFFF" fill-opacity = "0.0" d="M46.304,85.487c-24.646,0.95-39.625-19.68-40.188-36.695
			C5.272,23.327,23.708,4.987,52.104,6.306c16.358,0.76,34.05,21.056,33.84,40.664C85.74,65.908,70.452,85.917,46.304,85.487z
			 M50.293,45.97c-4.49,4.396-8.503,8.385-12.583,12.302c-3.105,2.981-1.39,5.144,0.962,7.452c2.279,2.237,4.359,4.277,7.446,1.155
			c5.97-6.036,11.94-12.073,18.023-17.996c2.134-2.079,2.164-3.675,0.014-5.764c-5.971-5.799-11.872-11.673-17.668-17.646
			c-3.111-3.207-5.304-1.695-7.838,0.781c-2.634,2.574-3.824,4.84-0.589,7.833C42.089,37.813,45.944,41.729,50.293,45.97z"/>
		<path fill-rule="evenodd" clip-rule="evenodd" fill="#FFFFFF" d="M50.293,45.97c-4.349-4.241-8.204-8.156-12.234-11.883
			c-3.235-2.993-2.045-5.259,0.589-7.833c2.534-2.477,4.727-3.988,7.838-0.781c5.796,5.973,11.697,11.847,17.668,17.646
			c2.15,2.089,2.12,3.685-0.014,5.764c-6.083,5.923-12.054,11.96-18.023,17.996c-3.087,3.122-5.167,1.082-7.446-1.155
			c-2.352-2.309-4.067-4.471-0.962-7.452C41.79,54.354,45.803,50.366,50.293,45.97z"/>
	</g>
</g>
<rect id="_x3C_Tranche_x3E_" x="-19" y="-18.5" fill="none" width="128" height="128"/>
</svg>
